<?xml version="1.0" encoding="UTF-8"?>
<svg width="88" height="112" viewBox="0 0 88 112" role="img" aria-label="Pacman contribution graph" xmlns="http://www.w3.org/2000/svg">
  <title>Pacman contribution graph (light)</title>
  <rect width="100%" height="100%" fill="#f7fbff" rx="12"/>
  <g><rect x="14" y="14" width="10" height="10" rx="2" ry="2" fill="#e1e8f5" opacity="0.95"/><rect x="14" y="26" width="10" height="10" rx="2" ry="2" fill="#9be9a8" opacity="0.95"/><rect x="14" y="38" width="10" height="10" rx="2" ry="2" fill="#9be9a8" opacity="0.95"/><rect x="14" y="50" width="10" height="10" rx="2" ry="2" fill="#e1e8f5" opacity="0.95"/><rect x="14" y="62" width="10" height="10" rx="2" ry="2" fill="#9be9a8" opacity="0.95"/><rect x="14" y="74" width="10" height="10" rx="2" ry="2" fill="#9be9a8" opacity="0.95"/><rect x="14" y="86" width="10" height="10" rx="2" ry="2" fill="#9be9a8" opacity="0.95"/><rect x="26" y="14" width="10" height="10" rx="2" ry="2" fill="#40c463" opacity="0.95"/><rect x="26" y="26" width="10" height="10" rx="2" ry="2" fill="#9be9a8" opacity="0.95"/><rect x="26" y="38" width="10" height="10" rx="2" ry="2" fill="#9be9a8" opacity="0.95"/><rect x="26" y="50" width="10" height="10" rx="2" ry="2" fill="#9be9a8" opacity="0.95"/><rect x="26" y="62" width="10" height="10" rx="2" ry="2" fill="#30a14e" opacity="0.95"/><rect x="26" y="74" width="10" height="10" rx="2" ry="2" fill="#9be9a8" opacity="0.95"/><rect x="26" y="86" width="10" height="10" rx="2" ry="2" fill="#9be9a8" opacity="0.95"/><rect x="38" y="14" width="10" height="10" rx="2" ry="2" fill="#9be9a8" opacity="0.95"/><rect x="38" y="26" width="10" height="10" rx="2" ry="2" fill="#9be9a8" opacity="0.95"/><rect x="38" y="38" width="10" height="10" rx="2" ry="2" fill="#30a14e" opacity="0.95"/><rect x="38" y="50" width="10" height="10" rx="2" ry="2" fill="#9be9a8" opacity="0.95"/><rect x="38" y="62" width="10" height="10" rx="2" ry="2" fill="#9be9a8" opacity="0.95"/><rect x="38" y="74" width="10" height="10" rx="2" ry="2" fill="#9be9a8" opacity="0.95"/><rect x="38" y="86" width="10" height="10" rx="2" ry="2" fill="#40c463" opacity="0.95"/><rect x="50" y="14" width="10" height="10" rx="2" ry="2" fill="#9be9a8" opacity="0.95"/><rect x="50" y="26" width="10" height="10" rx="2" ry="2" fill="#e1e8f5" opacity="0.95"/><rect x="50" y="38" width="10" height="10" rx="2" ry="2" fill="#9be9a8" opacity="0.95"/><rect x="50" y="50" width="10" height="10" rx="2" ry="2" fill="#9be9a8" opacity="0.95"/><rect x="50" y="62" width="10" height="10" rx="2" ry="2" fill="#40c463" opacity="0.95"/><rect x="50" y="74" width="10" height="10" rx="2" ry="2" fill="#40c463" opacity="0.95"/><rect x="50" y="86" width="10" height="10" rx="2" ry="2" fill="#40c463" opacity="0.95"/><rect x="62" y="14" width="10" height="10" rx="2" ry="2" fill="#9be9a8" opacity="0.95"/><rect x="62" y="26" width="10" height="10" rx="2" ry="2" fill="#216e39" opacity="0.95"/><rect x="62" y="38" width="10" height="10" rx="2" ry="2" fill="#216e39" opacity="0.95"/></g>
  <g>
    <path id="pac-path" d="M 14 56 L 74 56" fill="none" />
    <circle r="7" fill="#ffca3a">
      <animateMotion dur="6s" repeatCount="indefinite" rotate="auto">
        <mpath href="#pac-path" />
      </animateMotion>
    </circle>
    <circle r="1.5" fill="#0b1221" cx="3" cy="-2">
      <animateMotion dur="6s" repeatCount="indefinite" rotate="auto">
        <mpath href="#pac-path" />
      </animateMotion>
    </circle>
  </g>
  <style>
    @media (prefers-reduced-motion: reduce) {
      animateMotion { display: none; }
      circle { cx: 14; cy: 56; }
    }
  </style>
</svg>